<svg id="Layer_1" data-name="Layer 1" xmlns="http://www.w3.org/2000/svg" xmlns:xlink="http://www.w3.org/1999/xlink" viewBox="0 0 1600 1200"><defs><style>.cls-1{fill:url(#linear-gradient);}.cls-2{fill:url(#New_Gradient_Swatch_1);}.cls-3{fill:#2d7e7f;}</style><linearGradient id="linear-gradient" x1="1416.86" y1="647.36" x2="527.44" y2="647.36" gradientTransform="translate(0 -25)" gradientUnits="userSpaceOnUse"><stop offset="0" stop-color="#d0d2d3" stop-opacity="0.8"/><stop offset="0.14" stop-color="#d4d6d7" stop-opacity="0.75"/><stop offset="0.69" stop-color="#e1e2e3" stop-opacity="0.57"/><stop offset="1" stop-color="#e6e7e8" stop-opacity="0.5"/></linearGradient><linearGradient id="New_Gradient_Swatch_1" x1="599.22" y1="628.84" x2="1454.18" y2="628.84" gradientTransform="translate(0 -25)" gradientUnits="userSpaceOnUse"><stop offset="0" stop-color="#2d7e7f"/><stop offset="0.21" stop-color="#339192"/><stop offset="0.6" stop-color="#43bfbf"/><stop offset="0.99" stop-color="#a3ffff"/></linearGradient></defs><path class="cls-1" d="M1314.5,823.22a51.51,51.51,0,0,0-18.81-21.73l121.17-365.35-19.4-12.9L1274.71,793.51a53.1,53.1,0,0,0-20.49.89,55.26,55.26,0,0,0-7.35,2.35L1042.5,460.19a51.35,51.35,0,0,0,16.62-31.35l338.34-20.6L1382,386.44l-324.83,20.4a52.09,52.09,0,0,0-40.3-35.17l2.75-216.58-22.82.28-2.46,217a51.94,51.94,0,0,0-37.47,35.42l-353-16.7.28,22L955.36,430c.23,1.49.52,3,.89,4.45a50.94,50.94,0,0,0,14.16,24.41L762.22,802.22a53,53,0,0,0-22.11-1.38L597.93,429.58l-21.34,7.93,1.08,2.79-13.68.17-.21,316.7C539,765,523.44,789.8,528.34,815.55c5.31,27.92,32.69,46.33,61.14,41.12a52.87,52.87,0,0,0,10.31-3l366.07,236c4.48-6.65,7.09-17.57,14.6-19.84l-12.58-8,5.7-6.3L789.81,882.6a51.55,51.55,0,0,0,8.08-15.37l419.07-6.8a50.89,50.89,0,0,0,7.18,13.9l-206,178.8,15.3,16.14,207.81-180a53.07,53.07,0,0,0,38,5,51.65,51.65,0,0,0,39.9-49l67.78-28.41L1377.35,797ZM1001.08,398a25.45,25.45,0,0,1,30.74,18.27,24.92,24.92,0,0,1-18.61,30.17,25.45,25.45,0,0,1-30.74-18.27A24.92,24.92,0,0,1,1001.08,398ZM741.86,827.48a25.44,25.44,0,0,1,30.74,18.26A24.92,24.92,0,0,1,754,875.91a25.44,25.44,0,0,1-30.74-18.27A24.91,24.91,0,0,1,741.86,827.48ZM719.1,808.73a51.76,51.76,0,0,0-20.17,24.72l-67.85-16.4a50.39,50.39,0,0,0,.3-20.38c-4.3-22.59-23-38.95-45.11-41.61l.5-291Zm-164.22,2a25,25,0,0,1,20.31-29.09,25.38,25.38,0,0,1,29.65,19.93,24.42,24.42,0,0,1,0,9.18l-.57-.14L601,820a25.57,25.57,0,0,1-46.1-9.27ZM905.64,1022.2,619.22,840.05c.77-.87,1.52-1.75,2.23-2.65l74.21,18.1A51.15,51.15,0,0,0,697,864c6.9,27.58,35.29,44.45,63.4,37.67a53.56,53.56,0,0,0,12-4.47Zm309-183.8-414.8,6.46a52.09,52.09,0,0,0-1-5.44A51.1,51.1,0,0,0,782,812.66L989.72,470.71a53.1,53.1,0,0,0,29.93,1.45c1.05-.26,2.07-.55,3.09-.85l205.6,338A51.15,51.15,0,0,0,1214.66,838.4Zm58.13,30.16a25.44,25.44,0,0,1-30.74-18.26,24.92,24.92,0,0,1,18.61-30.17,25.44,25.44,0,0,1,30.74,18.27A24.9,24.9,0,0,1,1272.79,868.56Z"/><path class="cls-2" d="M1491,386c-6.9-27.58-35.29-44.45-63.4-37.67a52.71,52.71,0,0,0-18.63,8.56l-347.6-231.63a50.62,50.62,0,0,0-1.34-16.43c-6.91-27.58-35.3-44.45-63.41-37.67-26.37,6.36-43.13,31.28-39.39,57.12L608.49,354.68a53.08,53.08,0,0,0-34.16-3.13c-28.11,6.78-45.3,34.64-38.39,62.22s35.29,44.45,63.4,37.67c24.52-5.91,40.73-27.87,39.88-51.69l54.6-15.12a52.87,52.87,0,0,0,56.69,22.29A52,52,0,0,0,787.79,373l418.07-2.41c.09.41.17.83.27,1.24,6.67,26.61,33.31,43.24,60.42,38.3L1396,759.87a50.84,50.84,0,0,0-18.51,68.07l-326.21,224a52.93,52.93,0,0,0-48.37-15.93c-28.46,5.21-47.21,32.07-41.9,60s32.69,46.33,61.14,41.11c28.28-5.18,47-31.75,42-59.48l334.18-229.06a53,53,0,0,0,35,5.54c28.45-5.22,47.21-32.08,41.9-60A51.46,51.46,0,0,0,1448,758.05l5.9-310.17C1481.24,440.56,1497.78,413.16,1491,386Zm-186.68-4.25,83.77,22.72a50.23,50.23,0,0,0,1.12,6.08,51.85,51.85,0,0,0,35.58,36.91l-5.27,293L1292.78,397.16A51.69,51.69,0,0,0,1304.3,381.77ZM1434,374.08a25.43,25.43,0,0,1,30.74,18.26,24.91,24.91,0,0,1-18.61,30.17,25.44,25.44,0,0,1-30.74-18.27A24.91,24.91,0,0,1,1434,374.08Zm-50.39-.19-74.58-20.49a50,50,0,0,0-1.13-6.11c-6.48-25.9-31.9-42.35-58.25-38.66l-127-108.34Zm-176-31.61-418.86,2.09a51,51,0,0,0-4.57-11.62L984,166.27a53.24,53.24,0,0,0,52.65-1.39L1221.3,321.93A51.58,51.58,0,0,0,1207.67,342.28ZM1003.05,96.91a25.44,25.44,0,0,1,30.74,18.27,24.91,24.91,0,0,1-18.62,30.16,25.44,25.44,0,0,1-30.74-18.26A24.92,24.92,0,0,1,1003.05,96.91ZM764.12,312.4a53,53,0,0,0-28.06-6.83L897.49,201ZM690.62,335a50.41,50.41,0,0,0-5,22.21l-51.67,14.53ZM592.9,425.72a25.45,25.45,0,0,1-30.74-18.27,24.91,24.91,0,0,1,18.61-30.17,25.45,25.45,0,0,1,30.74,18.27A24.92,24.92,0,0,1,592.9,425.72Zm151.16-44.53a25.44,25.44,0,0,1-30.74-18.27,24.91,24.91,0,0,1,18.62-30.16A25.44,25.44,0,0,1,762.68,351,24.92,24.92,0,0,1,744.06,381.19Zm488.29-15.68A24.92,24.92,0,0,1,1251,335.34a25.45,25.45,0,0,1,30.74,18.27,24.93,24.93,0,0,1-18.62,30.17A25.45,25.45,0,0,1,1232.35,365.51Zm-215.18,745.57a25.39,25.39,0,0,1-29.64-19.94,25,25,0,0,1,20.31-29.09,25.39,25.39,0,0,1,29.65,19.93A25,25,0,0,1,1017.17,1111.08Zm411.12-283a25.38,25.38,0,0,1-29.64-19.93A25,25,0,0,1,1419,779.05,25.38,25.38,0,0,1,1448.61,799,25,25,0,0,1,1428.29,828.07Z"/><path class="cls-3" d="M106.44,554.88h39.49v32h.87a56.63,56.63,0,0,1,10.53-15.13A70.92,70.92,0,0,1,172,560.14a77.79,77.79,0,0,1,17.77-7.67,67.74,67.74,0,0,1,19.3-2.85,55.06,55.06,0,0,1,17.54,2.63l-1.75,42.55c-3.22-.88-6.44-1.6-9.65-2.19a54.38,54.38,0,0,0-9.65-.88q-29,0-44.31,16.23t-15.35,50.45V762.82H106.44ZM290.7,673.33a52.12,52.12,0,0,0,5.92,24.78,61.65,61.65,0,0,0,15.57,19.08,71.76,71.76,0,0,0,22.38,12.29,80,80,0,0,0,26.32,4.39q18.42,0,32-8.56a103.25,103.25,0,0,0,25-22.59l29.83,22.81q-32.89,42.56-92.13,42.56-24.57,0-44.52-8.34a96.82,96.82,0,0,1-33.78-23A102,102,0,0,1,256,702.06a122.24,122.24,0,0,1-7.46-43.21,113.46,113.46,0,0,1,8.12-43.21A107.21,107.21,0,0,1,279.07,581a102.22,102.22,0,0,1,34-23,109.51,109.51,0,0,1,43-8.33q27.65,0,46.72,9.64a92.49,92.49,0,0,1,31.37,25.23,99.72,99.72,0,0,1,17.77,35.1,146.32,146.32,0,0,1,5.48,39.69v14.05Zm124.58-31.59a83.42,83.42,0,0,0-4.16-24.13,53.26,53.26,0,0,0-11.19-19.08,51.71,51.71,0,0,0-18.64-12.73q-11.19-4.59-26.1-4.6a63.43,63.43,0,0,0-26.54,5.48,64.72,64.72,0,0,0-20.4,14.26,65.87,65.87,0,0,0-12.95,19.52,53.73,53.73,0,0,0-4.6,21.28ZM713.16,762.82H673.68V733h-.88q-11.41,16.68-31.37,25.88a96.94,96.94,0,0,1-41,9.22q-24.13,0-43.65-8.34a96.48,96.48,0,0,1-33.34-23.25,105.09,105.09,0,0,1-21.27-34.65,120.56,120.56,0,0,1-7.46-43,122.32,122.32,0,0,1,7.46-43.21A102.15,102.15,0,0,1,523.42,581a98,98,0,0,1,33.34-23q19.51-8.33,43.65-8.33a96.43,96.43,0,0,1,42.12,9.43q19.74,9.44,30.27,25.66h.88V454.09h39.48ZM605.24,731.24a71.24,71.24,0,0,0,28.51-5.49,62.87,62.87,0,0,0,21.5-14.91A65.83,65.83,0,0,0,668.85,688a90.53,90.53,0,0,0,0-58.35,65.83,65.83,0,0,0-13.6-22.81A63,63,0,0,0,633.75,592a76.93,76.93,0,0,0-57,0,62.9,62.9,0,0,0-21.49,14.92,65.53,65.53,0,0,0-13.6,22.81,90.53,90.53,0,0,0,0,58.35,65.53,65.53,0,0,0,13.6,22.81,62.74,62.74,0,0,0,21.49,14.91A71.29,71.29,0,0,0,605.24,731.24Zm351.83,31.58H917.58v-32h-.87q-7.47,16.66-25.88,27t-42.56,10.31a89.61,89.61,0,0,1-28.95-4.61,65,65,0,0,1-23.91-14.26q-10.32-9.65-16.45-24.79t-6.14-35.75V554.88H812.3V677.71q0,14.47,4,24.79a45.24,45.24,0,0,0,10.53,16.67,39.47,39.47,0,0,0,15.13,9.22,55.81,55.81,0,0,0,17.77,2.85,64.53,64.53,0,0,0,22.81-4,47.6,47.6,0,0,0,18.42-12.51q7.9-8.55,12.29-21.71t4.38-31.15v-107h39.49Zm59.66-207.94h39.48v32h.88q7.46-16.67,25.88-27t42.56-10.31a90.26,90.26,0,0,1,28.73,4.6,64.82,64.82,0,0,1,24.13,14.26q10.3,9.66,16.45,24.79T1201,629v133.8H1161.5V640q0-14.49-4-24.79A45.24,45.24,0,0,0,1147,598.53a39.57,39.57,0,0,0-15.13-9.21,55.85,55.85,0,0,0-17.77-2.85,64.27,64.27,0,0,0-22.81,3.95,47.55,47.55,0,0,0-18.43,12.49,59.12,59.12,0,0,0-12.28,21.72q-4.39,13.17-4.39,31.15v107h-39.48Z"/></svg>