<svg id="Layer_1" data-name="Layer 1" xmlns="http://www.w3.org/2000/svg" xmlns:xlink="http://www.w3.org/1999/xlink" viewBox="400 0 1200 1200"><defs><style>.cls-1{fill:url(#linear-gradient);}.cls-2{fill:url(#New_Gradient_Swatch_1);}.cls-3{fill:#2d7e7f;}</style><linearGradient id="linear-gradient" x1="1416.86" y1="647.36" x2="527.44" y2="647.36" gradientTransform="translate(0 -25)" gradientUnits="userSpaceOnUse"><stop offset="0" stop-color="#d0d2d3" stop-opacity="0.8"/><stop offset="0.14" stop-color="#d4d6d7" stop-opacity="0.75"/><stop offset="0.69" stop-color="#e1e2e3" stop-opacity="0.57"/><stop offset="1" stop-color="#e6e7e8" stop-opacity="0.5"/></linearGradient><linearGradient id="New_Gradient_Swatch_1" x1="599.22" y1="628.84" x2="1454.18" y2="628.84" gradientTransform="translate(0 -25)" gradientUnits="userSpaceOnUse"><stop offset="0" stop-color="#2d7e7f"/><stop offset="0.21" stop-color="#339192"/><stop offset="0.6" stop-color="#43bfbf"/><stop offset="0.99" stop-color="#a3ffff"/></linearGradient></defs><path class="cls-1" d="M1314.5,823.22a51.51,51.51,0,0,0-18.81-21.73l121.17-365.35-19.4-12.9L1274.71,793.51a53.1,53.1,0,0,0-20.49.89,55.26,55.26,0,0,0-7.35,2.35L1042.5,460.19a51.35,51.35,0,0,0,16.62-31.35l338.34-20.6L1382,386.44l-324.83,20.4a52.09,52.09,0,0,0-40.3-35.17l2.75-216.58-22.82.28-2.46,217a51.94,51.94,0,0,0-37.47,35.42l-353-16.7.28,22L955.36,430c.23,1.49.52,3,.89,4.45a50.94,50.94,0,0,0,14.16,24.41L762.22,802.22a53,53,0,0,0-22.11-1.38L597.93,429.58l-21.34,7.93,1.08,2.79-13.68.17-.21,316.7C539,765,523.44,789.8,528.34,815.55c5.31,27.92,32.69,46.33,61.14,41.12a52.87,52.87,0,0,0,10.31-3l366.07,236c4.48-6.65,7.09-17.57,14.6-19.84l-12.58-8,5.7-6.3L789.81,882.6a51.55,51.55,0,0,0,8.08-15.37l419.07-6.8a50.89,50.89,0,0,0,7.18,13.9l-206,178.8,15.3,16.14,207.81-180a53.07,53.07,0,0,0,38,5,51.65,51.65,0,0,0,39.9-49l67.78-28.41L1377.35,797ZM1001.08,398a25.45,25.45,0,0,1,30.74,18.27,24.92,24.92,0,0,1-18.61,30.17,25.45,25.45,0,0,1-30.74-18.27A24.92,24.92,0,0,1,1001.08,398ZM741.86,827.48a25.44,25.44,0,0,1,30.74,18.26A24.92,24.92,0,0,1,754,875.91a25.44,25.44,0,0,1-30.74-18.27A24.91,24.91,0,0,1,741.86,827.48ZM719.1,808.73a51.76,51.76,0,0,0-20.17,24.72l-67.85-16.4a50.39,50.39,0,0,0,.3-20.38c-4.3-22.59-23-38.95-45.11-41.61l.5-291Zm-164.22,2a25,25,0,0,1,20.31-29.09,25.38,25.38,0,0,1,29.65,19.93,24.42,24.42,0,0,1,0,9.18l-.57-.14L601,820a25.57,25.57,0,0,1-46.1-9.27ZM905.64,1022.2,619.22,840.05c.77-.87,1.52-1.75,2.23-2.65l74.21,18.1A51.15,51.15,0,0,0,697,864c6.9,27.58,35.29,44.45,63.4,37.67a53.56,53.56,0,0,0,12-4.47Zm309-183.8-414.8,6.46a52.09,52.09,0,0,0-1-5.44A51.1,51.1,0,0,0,782,812.66L989.72,470.71a53.1,53.1,0,0,0,29.93,1.45c1.05-.26,2.07-.55,3.09-.85l205.6,338A51.15,51.15,0,0,0,1214.66,838.4Zm58.13,30.16a25.44,25.44,0,0,1-30.74-18.26,24.92,24.92,0,0,1,18.61-30.17,25.44,25.44,0,0,1,30.74,18.27A24.9,24.9,0,0,1,1272.79,868.56Z"/><path class="cls-2" d="M1491,386c-6.9-27.58-35.29-44.45-63.4-37.67a52.71,52.71,0,0,0-18.63,8.56l-347.6-231.63a50.62,50.62,0,0,0-1.34-16.43c-6.91-27.58-35.3-44.45-63.41-37.67-26.37,6.36-43.13,31.28-39.39,57.12L608.49,354.68a53.08,53.08,0,0,0-34.16-3.13c-28.11,6.78-45.3,34.64-38.39,62.22s35.29,44.45,63.4,37.67c24.52-5.91,40.73-27.87,39.88-51.69l54.6-15.12a52.87,52.87,0,0,0,56.69,22.29A52,52,0,0,0,787.79,373l418.07-2.41c.09.41.17.83.27,1.24,6.67,26.61,33.31,43.24,60.42,38.3L1396,759.87a50.84,50.84,0,0,0-18.51,68.07l-326.21,224a52.93,52.93,0,0,0-48.37-15.93c-28.46,5.21-47.21,32.07-41.9,60s32.69,46.33,61.14,41.11c28.28-5.18,47-31.75,42-59.48l334.18-229.06a53,53,0,0,0,35,5.54c28.45-5.22,47.21-32.08,41.9-60A51.46,51.46,0,0,0,1448,758.05l5.9-310.17C1481.24,440.56,1497.78,413.16,1491,386Zm-186.68-4.25,83.77,22.72a50.23,50.23,0,0,0,1.12,6.08,51.85,51.85,0,0,0,35.58,36.91l-5.27,293L1292.78,397.16A51.69,51.69,0,0,0,1304.3,381.77ZM1434,374.08a25.43,25.43,0,0,1,30.74,18.26,24.91,24.91,0,0,1-18.61,30.17,25.44,25.44,0,0,1-30.74-18.27A24.91,24.91,0,0,1,1434,374.08Zm-50.39-.19-74.58-20.49a50,50,0,0,0-1.13-6.11c-6.48-25.9-31.9-42.35-58.25-38.66l-127-108.34Zm-176-31.61-418.86,2.09a51,51,0,0,0-4.57-11.62L984,166.27a53.24,53.24,0,0,0,52.65-1.39L1221.3,321.93A51.58,51.58,0,0,0,1207.67,342.28ZM1003.05,96.91a25.44,25.44,0,0,1,30.74,18.27,24.91,24.91,0,0,1-18.62,30.16,25.44,25.44,0,0,1-30.74-18.26A24.92,24.92,0,0,1,1003.05,96.91ZM764.12,312.4a53,53,0,0,0-28.06-6.83L897.49,201ZM690.62,335a50.41,50.41,0,0,0-5,22.21l-51.67,14.53ZM592.9,425.72a25.45,25.45,0,0,1-30.74-18.27,24.91,24.91,0,0,1,18.61-30.17,25.45,25.45,0,0,1,30.74,18.27A24.92,24.92,0,0,1,592.9,425.72Zm151.16-44.53a25.44,25.44,0,0,1-30.74-18.27,24.91,24.91,0,0,1,18.62-30.16A25.44,25.44,0,0,1,762.68,351,24.92,24.92,0,0,1,744.06,381.19Zm488.29-15.68A24.92,24.92,0,0,1,1251,335.34a25.45,25.45,0,0,1,30.74,18.27,24.93,24.93,0,0,1-18.62,30.17A25.45,25.45,0,0,1,1232.35,365.51Zm-215.18,745.57a25.39,25.39,0,0,1-29.64-19.94,25,25,0,0,1,20.31-29.09,25.39,25.39,0,0,1,29.65,19.93A25,25,0,0,1,1017.17,1111.08Zm411.12-283a25.38,25.38,0,0,1-29.64-19.93A25,25,0,0,1,1419,779.05,25.38,25.38,0,0,1,1448.61,799,25,25,0,0,1,1428.29,828.07Z"/></svg>
